# xmcd
#
# Track frame offsets: 
#        150
#        15915
#        33102
#        49507
#        59775
#        78905
#        92055
#        102860
#        117545
#        129955
#        140955
#
# Disc length: 2081 seconds
#
# Revision: 0
# Processed by: cddbd v1.4PL0 Copyright (c) Steve Scherf et al.
# Submitted via: ExactAudioCopy v0.90a11
#
DISCID=8c081f0b
DTITLE=Earnie Thacker And Route 23 - Backbone Job
DYEAR=1900
DGENRE=
TTITLE0=Wild Horses
TTITLE1=Miami, My Amy
TTITLE2=Molly
TTITLE3=To Late For Lovin'
TTITLE4=Whiskey And Women
TTITLE5=Backbone Job
TTITLE6=Rebecca
TTITLE7=Six More Miles
TTITLE8=Lonely And Blue
TTITLE9=Worries And Troubles
TTITLE10=Where There's A Will, There's A Way
EXTD=
EXTT0=
EXTT1=
EXTT2=
EXTT3=
EXTT4=
EXTT5=
EXTT6=
EXTT7=
EXTT8=
EXTT9=
EXTT10=
PLAYORDER=
